<svg width="352" height="352" viewBox="0 0 352 352" fill="none" xmlns="http://www.w3.org/2000/svg">
<circle cx="176" cy="176" r="176" fill="#1CAF57"/>
<path d="M117.256 137.152L114.568 160H103.176L110.408 112.96L129.48 140.288L148.616 112.96L155.848 160H144.456L141.768 137.152L129.48 155.84L117.256 137.152ZM176.752 160.64C173.339 160.64 170.373 160.021 167.856 158.784C165.381 157.504 163.461 155.712 162.096 153.408C160.731 151.104 160.048 148.395 160.048 145.28C160.048 142.123 160.709 139.392 162.032 137.088C163.355 134.784 165.253 133.013 167.728 131.776C170.245 130.539 173.211 129.92 176.624 129.92C180.037 129.92 182.917 130.517 185.264 131.712C187.611 132.864 189.403 134.549 190.64 136.768C191.877 138.987 192.496 141.675 192.496 144.832C192.496 145.301 192.496 145.771 192.496 146.24C192.496 146.667 192.453 147.029 192.368 147.328H165.488V141.952H183.664L181.36 144.896C181.573 144.597 181.744 144.235 181.872 143.808C182.043 143.339 182.128 142.955 182.128 142.656C182.128 141.376 181.893 140.267 181.424 139.328C180.955 138.389 180.293 137.664 179.44 137.152C178.587 136.64 177.584 136.384 176.432 136.384C174.981 136.384 173.765 136.704 172.784 137.344C171.803 137.984 171.056 138.965 170.544 140.288C170.075 141.568 169.819 143.189 169.776 145.152C169.776 146.944 170.032 148.48 170.544 149.76C171.056 151.04 171.824 152.021 172.848 152.704C173.872 153.344 175.131 153.664 176.624 153.664C178.331 153.664 179.781 153.344 180.976 152.704C182.213 152.064 183.195 151.104 183.92 149.824L192.56 151.936C191.024 154.837 188.933 157.013 186.288 158.464C183.685 159.915 180.507 160.64 176.752 160.64ZM195.008 130.56H214.72V138.56H195.008V130.56ZM200.192 120.32H209.472V160H200.192V120.32ZM226.327 150.784C226.327 151.552 226.519 152.213 226.903 152.768C227.287 153.28 227.799 153.685 228.439 153.984C229.079 154.24 229.783 154.368 230.551 154.368C231.66 154.368 232.684 154.133 233.623 153.664C234.561 153.195 235.329 152.491 235.927 151.552C236.524 150.613 236.823 149.461 236.823 148.096L237.847 151.936C237.847 153.813 237.335 155.413 236.311 156.736C235.287 158.016 233.964 158.997 232.343 159.68C230.721 160.32 228.972 160.64 227.095 160.64C225.217 160.64 223.468 160.299 221.847 159.616C220.268 158.891 218.988 157.824 218.007 156.416C217.068 155.008 216.599 153.301 216.599 151.296C216.599 148.48 217.601 146.261 219.607 144.64C221.612 142.976 224.449 142.144 228.119 142.144C229.911 142.144 231.511 142.315 232.919 142.656C234.369 142.997 235.607 143.424 236.631 143.936C237.655 144.448 238.423 144.981 238.935 145.536V149.824C237.911 149.056 236.716 148.48 235.351 148.096C234.028 147.669 232.62 147.456 231.127 147.456C229.975 147.456 229.057 147.584 228.375 147.84C227.692 148.096 227.18 148.48 226.839 148.992C226.497 149.461 226.327 150.059 226.327 150.784ZM222.039 139.584L218.775 133.12C220.439 132.309 222.444 131.541 224.791 130.816C227.137 130.091 229.697 129.728 232.471 129.728C235.073 129.728 237.399 130.112 239.447 130.88C241.495 131.605 243.116 132.672 244.311 134.08C245.505 135.488 246.103 137.216 246.103 139.264V160H236.823V141.44C236.823 140.715 236.695 140.096 236.439 139.584C236.225 139.029 235.884 138.56 235.415 138.176C234.945 137.792 234.348 137.515 233.623 137.344C232.94 137.173 232.151 137.088 231.255 137.088C229.932 137.088 228.631 137.237 227.351 137.536C226.113 137.835 225.025 138.197 224.087 138.624C223.148 139.008 222.465 139.328 222.039 139.584Z" fill="#13161C"/>
<path d="M115.579 241.096C116.219 241.651 117.009 242.12 117.947 242.504C118.886 242.931 119.825 243.144 120.764 243.144C121.745 243.144 122.684 242.76 123.58 241.992C124.476 241.224 124.924 239.901 124.924 238.024V192.2H136.572V240.456C136.572 242.589 136.188 244.403 135.42 245.896C134.652 247.432 133.585 248.648 132.22 249.544C130.854 250.483 129.276 251.165 127.484 251.592C125.692 252.061 123.814 252.296 121.852 252.296C120.188 252.296 118.587 252.104 117.051 251.72C115.515 251.336 114.129 250.867 112.891 250.312C111.654 249.8 110.587 249.245 109.691 248.648L115.579 241.096ZM143.361 222.28C143.361 219.165 144.086 216.456 145.536 214.152C146.987 211.848 148.993 210.056 151.553 208.776C154.113 207.496 156.993 206.856 160.193 206.856C163.393 206.856 166.251 207.496 168.769 208.776C171.329 210.056 173.334 211.848 174.785 214.152C176.278 216.456 177.025 219.165 177.025 222.28C177.025 225.352 176.278 228.04 174.785 230.344C173.334 232.648 171.329 234.44 168.769 235.72C166.251 237 163.393 237.64 160.193 237.64C156.993 237.64 154.113 237 151.553 235.72C148.993 234.44 146.987 232.648 145.536 230.344C144.086 228.04 143.361 225.352 143.361 222.28ZM153.281 222.28C153.281 223.816 153.601 225.139 154.241 226.248C154.881 227.315 155.713 228.147 156.737 228.744C157.761 229.341 158.913 229.64 160.193 229.64C161.43 229.64 162.561 229.341 163.585 228.744C164.651 228.147 165.483 227.315 166.081 226.248C166.721 225.139 167.041 223.816 167.041 222.28C167.041 220.744 166.721 219.421 166.081 218.312C165.483 217.203 164.651 216.349 163.585 215.752C162.561 215.155 161.43 214.856 160.193 214.856C158.913 214.856 157.761 215.155 156.737 215.752C155.713 216.349 154.881 217.203 154.241 218.312C153.601 219.421 153.281 220.744 153.281 222.28ZM192.439 187.08V237H182.775V187.08H192.439ZM216.503 222.28C216.503 225.565 215.82 228.36 214.455 230.664C213.132 232.925 211.404 234.653 209.271 235.848C207.18 237.043 204.919 237.64 202.487 237.64C200.055 237.64 197.879 237.021 195.958 235.784C194.039 234.547 192.524 232.776 191.415 230.472C190.305 228.168 189.751 225.437 189.751 222.28C189.751 219.08 190.305 216.349 191.415 214.088C192.524 211.784 194.039 210.013 195.958 208.776C197.879 207.539 200.055 206.92 202.487 206.92C204.919 206.92 207.18 207.517 209.271 208.712C211.404 209.907 213.132 211.635 214.455 213.896C215.82 216.157 216.503 218.952 216.503 222.28ZM206.327 222.28C206.327 220.744 206.007 219.421 205.367 218.312C204.727 217.16 203.873 216.285 202.807 215.688C201.74 215.048 200.567 214.728 199.287 214.728C198.177 214.728 197.089 215.027 196.023 215.624C194.999 216.221 194.145 217.096 193.463 218.248C192.78 219.357 192.439 220.701 192.439 222.28C192.439 223.859 192.78 225.224 193.463 226.376C194.145 227.485 194.999 228.339 196.023 228.936C197.089 229.533 198.177 229.832 199.287 229.832C200.567 229.832 201.74 229.533 202.807 228.936C203.873 228.296 204.727 227.421 205.367 226.312C206.007 225.16 206.327 223.816 206.327 222.28ZM223.939 226.312C225.432 227.549 226.776 228.531 227.97 229.256C229.208 229.939 230.296 230.429 231.235 230.728C232.173 230.984 232.984 231.112 233.667 231.112C234.648 231.112 235.373 230.899 235.843 230.472C236.312 230.045 236.547 229.491 236.547 228.808C236.547 228.168 236.355 227.635 235.971 227.208C235.587 226.739 234.925 226.291 233.987 225.864C233.091 225.437 231.853 224.989 230.275 224.52C228.867 224.008 227.523 223.411 226.243 222.728C225.005 222.003 223.981 221.043 223.171 219.848C222.36 218.653 221.955 217.117 221.955 215.24C221.955 213.448 222.424 211.933 223.363 210.696C224.344 209.459 225.645 208.52 227.267 207.88C228.931 207.24 230.829 206.92 232.963 206.92C234.669 206.92 236.248 207.112 237.699 207.496C239.192 207.88 240.579 208.392 241.859 209.032C243.181 209.672 244.419 210.419 245.571 211.272L242.115 217.544C240.877 216.392 239.469 215.453 237.891 214.728C236.312 213.96 234.861 213.576 233.539 213.576C232.643 213.576 231.96 213.747 231.491 214.088C231.064 214.429 230.851 214.877 230.851 215.432C230.851 216.072 231.107 216.605 231.619 217.032C232.173 217.459 232.941 217.864 233.923 218.248C234.947 218.589 236.184 219.037 237.635 219.592C239.171 220.147 240.579 220.787 241.859 221.512C243.181 222.237 244.227 223.155 244.995 224.264C245.805 225.373 246.211 226.845 246.211 228.68C246.211 231.837 245.229 234.227 243.267 235.848C241.347 237.427 238.637 238.216 235.139 238.216C233.005 238.216 231.021 237.96 229.187 237.448C227.395 236.979 225.731 236.339 224.195 235.528C222.659 234.675 221.229 233.736 219.907 232.712L223.939 226.312Z" fill="white"/>
</svg>
